# xmcd
#
# Track frame offsets:
#	150
#	15672
#	29334
#	40221
#	54578
#	67957
#	80895
#	93936
#	110802
#	125656
#	140156
#	155821
#	170541
#	183003
#	197802
#	211207
#
# Disc length: 3001 seconds
#
# Revision: 0
# Processed by: cddbd v1.5.2PL0 Copyright (c) Steve Scherf et al.
# Submitted via: audiograbber 1.83.01
#
DISCID=e80bb710
DTITLE=Nat King Cole - Unforgetable
DYEAR=1900
DGENRE=
TTITLE0=Mona_Lisa
TTITLE1=I Almost Lost My Mind
TTITLE2=Orange Coloured Sky
TTITLE3=Because You're Mine
TTITLE4=MyMotherToldMe
TTITLE5=Somewhere Along The way
TTITLE6=OnTheSunnySideOfTheStreet
TTITLE7=(Get Your Kicks On) Route 66
TTITLE8=Red Sails in the Sunset
TTITLE9=Too Young
TTITLE10=Unforgettable (1951)
TTITLE11=Can'tI
TTITLE12=King- Cole - Pretend
TTITLE13=NatKingCole_Stardust
TTITLE14=Who´s sorry now
TTITLE15=For Sentimental Reasons
EXTD=
EXTT0=
EXTT1=
EXTT2=
EXTT3=
EXTT4=
EXTT5=
EXTT6=
EXTT7=
EXTT8=
EXTT9=
EXTT10=
EXTT11=
EXTT12=
EXTT13=
EXTT14=
EXTT15=
PLAYORDER=
